<svg width="33" height="34" viewBox="0 0 33 34" fill="none" xmlns="http://www.w3.org/2000/svg">
<path d="M2.94425 33.6673C2.19425 33.6673 1.5438 33.3919 0.992879 32.8409C0.441962 32.29 0.166504 31.6396 0.166504 30.8896V3.11174C0.166504 2.36174 0.441962 1.71128 0.992879 1.16036C1.5438 0.609443 2.19425 0.333984 2.94425 0.333984H16.0047C16.5352 0.333984 17.0439 0.544698 17.419 0.919771L26.2474 9.7482C26.6225 10.1233 26.8332 10.632 26.8332 11.1624V15.5007C26.8332 16.2677 26.2114 16.8895 25.4443 16.8895C24.6772 16.8895 24.0554 16.2677 24.0554 15.5007V14.0007C24.0554 12.8961 23.16 12.0007 22.0554 12.0007H17.1665C16.0619 12.0007 15.1665 11.1052 15.1665 10.0007V5.11173C15.1665 4.00717 14.2711 3.11174 13.1665 3.11174H4.94425C3.83968 3.11174 2.94425 4.00717 2.94425 5.11174V28.8896C2.94425 29.9941 3.83968 30.8896 4.94425 30.8896H13.2221C13.9891 30.8896 14.611 31.5114 14.611 32.2784C14.611 33.0455 13.9891 33.6673 13.2221 33.6673H2.94425ZM24.6665 21.6534C25.4257 22.4126 25.425 23.6436 24.6651 24.402L19.7482 29.3087C19.4825 29.5739 19.3332 29.9339 19.3332 30.3093C19.3332 31.09 19.9669 31.7229 20.7476 31.7229C21.1224 31.7229 21.4821 31.5742 21.7474 31.3095L26.679 26.3881C27.4317 25.637 28.6507 25.6376 29.4026 26.3895L22.7106 33.0815C22.3356 33.4566 21.8268 33.6673 21.2964 33.6673H19.3888C18.2842 33.6673 17.3888 32.7719 17.3888 31.6673V29.7597C17.3888 29.2292 17.5995 28.7205 17.9745 28.3455L24.6665 21.6534ZM29.4026 26.3895L24.6665 21.6534L27.1665 19.1534C27.435 18.8849 27.7591 18.7507 28.1388 18.7507C28.5184 18.7507 28.8424 18.8849 29.111 19.1534L31.9026 21.9451C32.1711 22.2136 32.3054 22.5377 32.3054 22.9173C32.3054 23.297 32.1711 23.621 31.9026 23.8895L29.4026 26.3895Z" fill="#0B59C8"/>
</svg>
